<?xml version="1.0" encoding="utf-8"?>
<!-- Generator: Adobe Illustrator 24.0.0, SVG Export Plug-In . SVG Version: 6.00 Build 0)  -->
<svg version="1.1" id="Layer_1" xmlns="http://www.w3.org/2000/svg" xmlns:xlink="http://www.w3.org/1999/xlink" x="0px" y="0px"
	 viewBox="0 0 250 70" style="enable-background:new 0 0 250 70;" xml:space="preserve">
<style type="text/css">
	.st0{fill:#801323;}
	.st1{fill:#E6E5E5;}
	.st2{font-family:'AgencyFB-Reg';}
	.st3{font-size:47px;}
</style>
<g>
	<path class="st0" d="M29.4,22.8c-0.4-0.7-0.2-1.5-0.3-2.3c0-0.5,0.4-1.4-0.8-1.1c-0.2,0-0.3-0.2-0.3-0.3c0.3-0.8,1-0.9,1.6-1.2
		c0.5-0.2,0.8,0.2,0.8,0.6c0,1.4,0.3,2.9-0.2,4.3C29.9,22.8,29.6,22.8,29.4,22.8z"/>
	<path class="st0" d="M21.1,7.6c0,0.5,0,1,0,1.5c0,0.4,0,1-0.6,1s-0.6-0.5-0.6-0.9s0-0.8,0-1.2c-0.1-0.5,0.5-1.6-0.9-1.2
		c-0.1,0-0.3-0.3-0.3-0.3c0.2-0.8,1-0.9,1.6-1.2C20.9,5,21.1,5.6,21.1,6C21.1,6.5,21,7.1,21.1,7.6C21,7.6,21.1,7.6,21.1,7.6z"/>
	<path class="st0" d="M29.6,9.4c-1.3,0-2,0.8-2,2.5s0.7,2.6,1.9,2.6s2-0.9,2-2.5C31.5,10.3,30.8,9.4,29.6,9.4z M30.2,13
		c-0.1,0.3-0.3,0.6-0.8,0.6c-0.3,0-0.6-0.3-0.6-0.6c0-0.6,0-1.1,0-1.7c0-0.5,0.1-0.9,0.7-0.9c0.6,0,0.7,0.5,0.7,0.9
		c0,0.3,0,0.5,0,0.8l0,0C30.2,12.3,30.2,12.7,30.2,13z"/>
	<path class="st0" d="M20.2,13.6c-1.3-0.1-2,0.8-2,2.5s0.6,2.6,1.9,2.6c1.3,0,2.1-0.9,2.1-2.5S21.5,13.6,20.2,13.6z M20.8,17.1
		c-0.1,0.3-0.2,0.6-0.6,0.6c-0.4,0-0.6-0.2-0.7-0.6c-0.1-0.6-0.2-1.1-0.1-1.7c0.1-0.4,0.1-0.9,0.7-0.9c0.6,0,0.7,0.5,0.7,0.9
		c0,0.2,0,0.4,0,0.7l0,0C20.9,16.5,20.9,16.8,20.8,17.1z"/>
</g>
<g>
	<path class="st1" d="M42.6,40.4c0.2,0.4,0.3,0.7,0.6,1.1c0.4,0.7-0.3,0.4-0.4,0.8c-0.1-0.8-0.2-1.3-0.3-1.9
		C42.5,40.4,42.5,40.4,42.6,40.4z"/>
	<path class="st0" d="M46.1,41.7c-0.2,0-0.3-0.1-0.5-0.1c0.2-0.5,0.4-1,0.5-1.5c0.2-1.2-0.5-2.3-1.6-2.4c-1-0.1-1.8,0.7-1.9,2
		c0,0.3,0,0.5,0,0.7c-0.1,0.3,0.3,0.6,0.2,0.9c0-0.3-0.3-0.6-0.4-0.9c-0.5-1.9-1.2-3.6-2.4-5.2c-4.7-6.1-11.1-8.1-18.5-7.4
		c-1.6,0.1-3.1,0.4-4.8,0c-2.4-0.6-4.8-0.6-7.3-0.1c-0.9,0.2-1.1,0.6-0.7,1.4c0.5,0.9,1,1.8,1.5,2.7c0.3,0.5,0.3,0.8-0.1,1.2
		c-1.2,1.1-2.3,2.3-2.9,3.7c-0.6,1.6-1.5,2.3-3.3,2c-1-0.2-1.3,0.4-1.3,1.3c0,1.3,0.1,2.6,0,3.9c-0.1,1.5,0.4,2.5,1.8,3
		c1.2,0.4,2,1.2,2.6,2.5c0.6,1.5,1.8,2.8,2.9,4c1,1.1,2.9,1.6,3.3,3c0.4,1.4,0.1,3,0.1,4.6c0,0.8,0.4,1,1.1,1c0.9,0,1.8-0.1,2.7,0
		c2.1,0.3,3.4-0.4,4-2.5c0.2-0.6,0.5-0.8,1.2-0.7c1.2,0.1,2.4,0.1,3.6,0c2.3-0.2,2.3-0.3,2.3,1.9c0,0.9,0.3,1.3,1.2,1.2
		c1.4-0.1,2.7-0.1,4.1,0c1,0,1.5-0.4,1.9-1.2c2-4,3.9-7.9,5.9-11.9c0.7-1.4,1.1-2.8,1.2-4.3c0-0.6,0.3-0.9,0.8-1.2
		c0.8-0.5,1.5-0.7,2.4-0.3c0.5,0.2,1.1,0,1.1-0.6C47,41.9,46.6,41.7,46.1,41.7z M12.2,39.1c-0.7,0.1-1.1-0.3-1.1-1s0.3-1,1-1
		c0.6,0,1,0.4,1.1,1C13.1,38.7,12.8,39.1,12.2,39.1z M28.8,31.5c-3.1,0-6.1,0-9.2,0c-0.3,0-0.7,0.2-0.7-0.4s0.4-0.4,0.7-0.4
		c1.6,0,3.2,0,4.7,0s3,0,4.5,0c0.3,0,0.7-0.2,0.8,0.4C29.5,31.6,29.1,31.4,28.8,31.5z M44.3,40.6c-0.2-0.5-0.4-0.9-0.1-1.4
		c0.1-0.1,0.3-0.1,0.4,0.1C44.7,39.8,44.8,40.3,44.3,40.6z"/>
</g>
<text transform="matrix(1 0 0 1 51.5311 56.873)" class="st0 st2 st3">DataPiggy</text>
</svg>
