<?xml version="1.0" encoding="utf-8"?>
<!-- Generator: Adobe Illustrator 24.0.0, SVG Export Plug-In . SVG Version: 6.00 Build 0)  -->
<svg version="1.1" id="Layer_1" xmlns="http://www.w3.org/2000/svg" xmlns:xlink="http://www.w3.org/1999/xlink" x="0px" y="0px"
	 viewBox="0 0 250 70" style="enable-background:new 0 0 250 70;" xml:space="preserve">
<style type="text/css">
	.st0{fill:#801323;}
	.st1{fill:#E6E5E5;}
</style>
<g>
	<path class="st0" d="M43.9-45.61c-0.36-0.74-0.2-1.54-0.26-2.32c-0.04-0.51,0.39-1.43-0.83-1.09c-0.19,0.05-0.34-0.19-0.29-0.35
		c0.26-0.76,1.03-0.89,1.63-1.17c0.49-0.22,0.76,0.22,0.76,0.63c-0.01,1.43,0.27,2.88-0.21,4.29C44.43-45.61,44.17-45.61,43.9-45.61
		z"/>
	<path class="st0" d="M35.58-60.76c0,0.48,0.03,0.97-0.01,1.45c-0.03,0.42-0.01,0.97-0.62,0.99c-0.63,0.02-0.62-0.5-0.63-0.94
		c-0.01-0.4,0.05-0.8-0.02-1.18c-0.09-0.5,0.51-1.57-0.86-1.19c-0.07,0.02-0.33-0.26-0.31-0.35c0.22-0.8,1.01-0.89,1.61-1.17
		c0.6-0.28,0.77,0.25,0.81,0.7c0.05,0.57,0.01,1.14,0.01,1.71C35.57-60.76,35.58-60.76,35.58-60.76z"/>
	<path class="st0" d="M44.08-58.99c-1.31-0.03-2.02,0.85-2.03,2.5c-0.01,1.66,0.67,2.59,1.94,2.62c1.27,0.03,2.03-0.9,2.04-2.53
		C46.04-58.07,45.37-58.96,44.08-58.99z M44.68-55.45c-0.07,0.39-0.3,0.64-0.72,0.61c-0.35-0.03-0.56-0.27-0.58-0.61
		c-0.04-0.57-0.05-1.13-0.03-1.7c0.01-0.45,0.1-0.94,0.68-0.93c0.58,0,0.66,0.48,0.69,0.93c0.02,0.26,0,0.52,0,0.79
		c0.01,0,0.03,0,0.04,0C44.74-56.06,44.73-55.75,44.68-55.45z"/>
	<path class="st0" d="M34.75-54.84c-1.28-0.06-2.02,0.84-2.05,2.49c-0.03,1.7,0.61,2.59,1.89,2.64c1.29,0.05,2.06-0.86,2.09-2.47
		C36.72-53.78,35.99-54.78,34.75-54.84z M35.34-51.26c-0.07,0.3-0.22,0.59-0.59,0.62c-0.43,0.03-0.62-0.23-0.72-0.62
		c-0.14-0.57-0.16-1.14-0.07-1.7c0.07-0.42,0.11-0.94,0.72-0.94c0.58,0.01,0.66,0.49,0.72,0.93c0.03,0.22,0.01,0.44,0.01,0.66
		c0.01,0,0.03,0,0.04,0C35.41-51.95,35.41-51.6,35.34-51.26z"/>
</g>
<g>
	<path class="st1" d="M57.11-27.98c0.18,0.36,0.35,0.73,0.56,1.07c0.4,0.66-0.28,0.42-0.44,0.81c-0.12-0.78-0.2-1.33-0.28-1.88
		C57-27.99,57.05-27.99,57.11-27.98z"/>
	<path class="st0" d="M60.58-26.73c-0.15,0-0.3-0.06-0.48-0.1c0.17-0.52,0.37-0.98,0.47-1.46c0.24-1.18-0.52-2.31-1.57-2.42
		c-1.05-0.11-1.81,0.7-1.86,1.99c-0.01,0.25-0.02,0.5-0.04,0.74c-0.11,0.34,0.26,0.57,0.22,0.89c-0.05-0.33-0.26-0.59-0.38-0.89
		c-0.45-1.87-1.18-3.63-2.35-5.16c-4.71-6.09-11.09-8.09-18.5-7.42c-1.6,0.14-3.12,0.39-4.76-0.03c-2.37-0.6-4.84-0.62-7.29-0.14
		c-0.91,0.18-1.11,0.64-0.7,1.4c0.48,0.91,0.98,1.83,1.54,2.69c0.34,0.51,0.34,0.81-0.15,1.24c-1.19,1.06-2.29,2.26-2.86,3.73
		c-0.63,1.63-1.55,2.34-3.3,2.01c-0.98-0.19-1.31,0.4-1.28,1.33c0.04,1.29,0.1,2.59-0.01,3.86c-0.14,1.51,0.38,2.48,1.82,2.96
		c1.23,0.41,2.05,1.2,2.56,2.46c0.62,1.55,1.77,2.78,2.89,4.02c1.02,1.13,2.86,1.56,3.3,2.98c0.43,1.4,0.12,3.05,0.09,4.58
		c-0.02,0.79,0.35,1.02,1.06,1c0.91-0.03,1.85-0.12,2.74,0.02c2.09,0.32,3.43-0.39,3.95-2.5c0.15-0.62,0.5-0.76,1.18-0.7
		c1.19,0.12,2.41,0.13,3.61,0.02c2.28-0.21,2.31-0.25,2.33,1.93c0.01,0.91,0.32,1.27,1.24,1.23c1.37-0.05,2.74-0.06,4.11,0
		c0.98,0.04,1.51-0.39,1.92-1.23c1.95-3.97,3.93-7.92,5.9-11.88c0.67-1.35,1.11-2.77,1.16-4.28c0.02-0.6,0.25-0.9,0.79-1.22
		c0.8-0.47,1.5-0.68,2.39-0.3c0.51,0.22,1.06,0.05,1.14-0.58C61.54-26.5,61.12-26.72,60.58-26.73z M26.73-29.26
		c-0.66,0.06-1.08-0.34-1.1-1.04c-0.02-0.65,0.34-1,0.98-1.01c0.63-0.02,0.96,0.37,1.09,0.95C27.65-29.74,27.31-29.31,26.73-29.26z
		 M43.31-36.95c-3.07,0.01-6.14,0.01-9.21,0c-0.28,0-0.72,0.18-0.74-0.37c-0.02-0.55,0.41-0.41,0.71-0.41
		c1.58-0.01,3.15-0.01,4.73-0.01c1.49,0,2.99-0.01,4.48,0.01c0.29,0,0.73-0.15,0.75,0.38C44.05-36.81,43.61-36.96,43.31-36.95z
		 M58.78-27.78c-0.23-0.48-0.44-0.93-0.09-1.41c0.08-0.11,0.35-0.13,0.4,0.06C59.22-28.64,59.31-28.15,58.78-27.78z"/>
</g>
<text transform="matrix(1 0 0 1 73.0225 -11.5442)" class="st0" style="font-family:'AgencyFB-Reg'; font-size:47px;">DataPiggy</text>
</svg>
