<?xml version="1.0" encoding="utf-8"?>
<!-- Generator: Adobe Illustrator 24.0.0, SVG Export Plug-In . SVG Version: 6.00 Build 0)  -->
<svg version="1.1" id="Layer_1" xmlns="http://www.w3.org/2000/svg" xmlns:xlink="http://www.w3.org/1999/xlink" x="0px" y="0px"
	 viewBox="0 0 300 300" style="enable-background:new 0 0 300 300;" xml:space="preserve">
<style type="text/css">
	.st0{fill:#253F70;}
	.st1{fill:#223C6D;}
	.st2{fill:#213B6C;}
	.st3{fill:#213C6D;}
	.st4{fill:#284172;}
	.st5{fill:#284272;}
	.st6{fill:#294373;}
	.st7{fill:#233D6F;}
	.st8{fill:#FDFEFF;}
	.st9{fill:#F2F3F5;}
	.st10{fill:#F3F3F6;}
	.st11{fill:#F2F4F5;}
	.st12{fill:#70BF44;}
	.st13{fill:#E6E5E5;}
	.st14{fill:#FDFDFD;}
	.st15{fill:#FAF9F9;}
	.st16{fill:#F2F2F1;}
</style>
<g>
	<path class="st0" d="M150.91,128.41c-0.87-1.79-0.49-3.71-0.63-5.57c-0.09-1.22,0.93-3.43-1.99-2.61
		c-0.45,0.13-0.82-0.45-0.69-0.83c0.62-1.83,2.46-2.13,3.91-2.8c1.17-0.54,1.82,0.53,1.81,1.51c-0.02,3.44,0.65,6.92-0.51,10.31
		C152.18,128.41,151.54,128.41,150.91,128.41z"/>
	<path class="st1" d="M146.45,102.3c0.03-3.97,1.75-6.08,4.88-6.01c3.1,0.08,4.72,2.23,4.68,6.22c-0.04,3.9-1.84,6.13-4.9,6.06
		C148.06,108.51,146.42,106.3,146.45,102.3z"/>
	<path class="st2" d="M124.03,51.85c0-4.04,1.61-6.18,4.67-6.21c3.04-0.02,4.84,2.23,4.88,6.09c0.04,3.92-1.64,6.08-4.77,6.12
		C125.61,57.89,124.03,55.9,124.03,51.85z"/>
	<path class="st3" d="M124.03,112.24c0.07-3.96,1.85-6.12,4.92-5.97c2.96,0.14,4.71,2.54,4.63,6.37c-0.08,3.88-1.92,6.05-5.03,5.93
		C125.49,118.45,123.97,116.31,124.03,112.24z"/>
	<path class="st2" d="M169.2,70.71c-0.02-4.11,1.51-6.14,4.63-6.18c3.15-0.04,4.88,2.07,4.92,5.99c0.04,3.84-1.74,6.18-4.73,6.24
		C170.94,76.83,169.22,74.68,169.2,70.71z"/>
	<path class="st2" d="M169.2,111.29c-0.04-4.24,1.61-6.46,4.78-6.41c3,0.04,4.79,2.36,4.77,6.2c-0.02,3.95-1.7,6.03-4.88,6.01
		C170.79,117.07,169.24,115.15,169.2,111.29z"/>
	<path class="st0" d="M153.32,61.9c0,1.48,0.07,2.96-0.03,4.44c-0.05,0.77-0.59,1.44-1.43,1.44c-0.86,0-1.35-0.71-1.42-1.46
		c-0.14-1.36-0.02-2.75-0.16-4.12c-0.12-1.2,0.97-3.44-1.97-2.57c-0.46,0.14-0.84-0.48-0.72-0.82c0.68-1.96,2.58-2.44,4.21-2.87
		c1.4-0.37,1.54,1.1,1.59,2.16c0.06,1.27,0.01,2.54,0.01,3.81C153.38,61.9,153.35,61.9,153.32,61.9z"/>
	<path class="st4" d="M130.94,92.06c0,1.16,0.07,2.32-0.02,3.48c-0.08,1.01-0.02,2.32-1.49,2.37c-1.51,0.04-1.48-1.2-1.51-2.26
		c-0.03-0.95,0.12-1.92-0.06-2.84c-0.23-1.21,1.22-3.76-2.06-2.87c-0.17,0.05-0.8-0.63-0.74-0.84c0.53-1.91,2.43-2.15,3.87-2.81
		c1.45-0.67,1.84,0.61,1.94,1.68c0.13,1.36,0.03,2.74,0.03,4.11C130.92,92.06,130.93,92.06,130.94,92.06z"/>
	<path class="st5" d="M127.94,69.55c-1.03-0.4-2.37,1.11-2.83-0.55c-0.33-1.2,0.95-1.45,1.72-1.92c3.28-1.97,4.05-1.58,4.12,2.14
		c0.04,2.22,0.04,4.45-0.07,6.67c-0.05,0.96-0.4,1.99-1.69,1.84c-1.04-0.12-1.26-0.99-1.26-1.9
		C127.94,73.73,127.94,71.62,127.94,69.55z"/>
	<path class="st5" d="M176.09,50.22c0,1.17,0.04,2.34-0.01,3.5c-0.05,1.06-0.08,2.35-1.48,2.41c-1.48,0.05-1.45-1.25-1.48-2.3
		c-0.03-1.06,0.08-2.13-0.04-3.18c-0.14-1.17,1.03-3.5-1.98-2.55c-0.19,0.06-0.88-0.56-0.83-0.75c0.44-1.98,2.38-2.17,3.79-2.91
		c1.11-0.58,1.84,0.21,1.91,1.35c0.09,1.48,0.02,2.96,0.02,4.45C176.01,50.22,176.05,50.22,176.09,50.22z"/>
	<path class="st6" d="M176.04,90.79c0,1.27,0.06,2.55-0.02,3.81c-0.06,0.95-0.21,2.03-1.56,1.94c-1.31-0.09-1.32-1.17-1.35-2.13
		c-0.04-1.27,0-2.54-0.03-3.81c-0.02-1.24,0.56-3.06-1.93-2.07c-0.19,0.08-0.9-0.46-0.88-0.67c0.21-2.16,2.35-2.09,3.65-2.96
		c1.14-0.76,1.85,0.06,1.98,1.14c0.2,1.57,0.18,3.16,0.26,4.75C176.12,90.79,176.08,90.79,176.04,90.79z"/>
	<path class="st7" d="M153.4,82.14c0,1.27,0.02,2.53-0.01,3.8c-0.03,1.03-0.41,2.02-1.56,1.99c-1.14-0.03-1.46-1.05-1.49-2.08
		c-0.03-1.05,0.13-2.14-0.07-3.15c-0.23-1.15,1.27-3.72-1.99-2.8c-0.14,0.04-0.73-0.65-0.66-0.86c0.56-1.89,2.39-2.28,3.89-2.78
		c1.64-0.56,1.84,0.9,1.9,2.1C153.45,79.6,153.4,80.87,153.4,82.14z"/>
	<path class="st8" d="M152.98,102.61c-0.06,0.73-0.08,1.47-0.2,2.19c-0.16,0.93-0.71,1.54-1.72,1.45c-0.83-0.07-1.35-0.64-1.4-1.45
		c-0.09-1.36-0.13-2.72-0.08-4.08c0.03-1.08,0.24-2.25,1.64-2.24c1.38,0.01,1.58,1.15,1.66,2.24c0.04,0.63,0.01,1.26,0.01,1.89
		C152.92,102.61,152.95,102.61,152.98,102.61z"/>
	<path class="st9" d="M130.53,51.45c0,0.82,0.04,1.24-0.01,1.66c-0.12,1.16-0.2,2.52-1.68,2.63c-1.6,0.11-1.58-1.37-1.84-2.45
		c-0.1-0.4-0.14-0.84-0.09-1.25c0.22-1.56-0.45-4.02,1.75-4.1C130.95,47.85,130.41,50.27,130.53,51.45z"/>
	<path class="st10" d="M130.6,112.35c-0.08,0.84-0.07,1.7-0.25,2.51c-0.16,0.72-0.52,1.43-1.42,1.48c-1.03,0.06-1.49-0.55-1.73-1.48
		c-0.35-1.36-0.39-2.73-0.16-4.09c0.17-1.02,0.26-2.26,1.72-2.25c1.4,0.02,1.59,1.17,1.73,2.23c0.07,0.52,0.01,1.05,0.01,1.58
		C130.54,112.35,130.57,112.35,130.6,112.35z"/>
	<path class="st11" d="M175.8,70.71c-0.09,0.76-0.12,1.6-0.3,2.41c-0.16,0.74-0.61,1.37-1.46,1.4c-0.99,0.03-1.53-0.56-1.66-1.51
		c-0.12-0.82-0.31-1.66-0.26-2.48c0.09-1.48-0.31-3.73,1.71-3.77C176.19,66.72,175.52,69.11,175.8,70.71z"/>
	<path class="st9" d="M175.77,111.03c-0.04,0.7-0.01,1.34-0.14,1.95c-0.19,0.93-0.42,1.95-1.62,2.02c-1.23,0.07-1.53-0.9-1.72-1.86
		c-0.12-0.61-0.25-1.25-0.2-1.87c0.15-1.57-0.45-4.01,1.74-4.09C176.13,107.09,175.56,109.53,175.77,111.03z"/>
</g>
<g>
	<path class="st12" d="M195.11,171.62c0.03-0.6,0.06-1.19,0.09-1.79c0.12-3.09,1.94-5.03,4.47-4.77c2.52,0.26,4.33,2.98,3.76,5.81
		c-0.23,1.15-0.71,2.25-1.13,3.51c0.44,0.1,0.8,0.23,1.16,0.24c1.28,0.02,2.29,0.55,2.11,1.9c-0.2,1.51-1.52,1.91-2.74,1.4
		c-2.14-0.91-3.82-0.39-5.74,0.73c-1.31,0.76-1.86,1.49-1.91,2.93c-0.12,3.63-1.17,7.03-2.78,10.27
		c-4.72,9.51-9.49,18.99-14.16,28.51c-0.99,2.01-2.27,3.05-4.62,2.94c-3.28-0.15-6.59-0.13-9.87,0c-2.22,0.09-2.96-0.76-2.98-2.95
		c-0.04-5.25-0.12-5.13-5.59-4.64c-2.87,0.26-5.79,0.24-8.66-0.04c-1.62-0.16-2.46,0.18-2.82,1.67c-1.24,5.05-4.47,6.76-9.49,5.99
		c-2.14-0.33-4.38-0.11-6.57-0.04c-1.71,0.05-2.59-0.51-2.54-2.4c0.09-3.69,0.84-7.63-0.21-11c-1.05-3.4-5.47-4.45-7.92-7.16
		c-2.69-2.97-5.45-5.92-6.94-9.64c-1.21-3.03-3.18-4.91-6.14-5.91c-3.46-1.16-4.7-3.49-4.37-7.11c0.28-3.07,0.13-6.18,0.03-9.27
		c-0.07-2.23,0.72-3.64,3.08-3.19c4.2,0.79,6.41-0.92,7.93-4.83c1.37-3.53,4.02-6.41,6.86-8.94c1.15-1.03,1.15-1.74,0.35-2.98
		c-1.36-2.07-2.54-4.27-3.7-6.46c-0.97-1.83-0.48-2.94,1.69-3.37c5.86-1.15,11.79-1.11,17.49,0.33c3.95,1,7.59,0.42,11.43,0.07
		c17.78-1.61,33.09,3.2,44.39,17.81c2.83,3.66,4.56,7.89,5.65,12.38c0.28,0.73,0.8,1.35,0.91,2.15
		C195.74,172.98,194.84,172.45,195.11,171.62z"/>
	<path class="st13" d="M195.11,171.62c0.44,0.86,0.84,1.74,1.34,2.56c0.96,1.57-0.66,1.02-1.05,1.95c-0.28-1.86-0.48-3.19-0.68-4.52
		C194.86,171.59,194.99,171.6,195.11,171.62z"/>
	<path class="st14" d="M151.18,148.19c3.58,0,7.17-0.02,10.75,0.02c0.7,0.01,1.75-0.37,1.8,0.9c0.05,1.32-1.01,0.97-1.72,0.98
		c-7.37,0.02-14.74,0.03-22.1,0c-0.68,0-1.74,0.44-1.79-0.89c-0.05-1.33,0.99-0.98,1.7-0.99
		C143.61,148.18,147.39,148.19,151.18,148.19z"/>
	<path class="st15" d="M124.54,165.92c-0.12,1.47-0.93,2.51-2.33,2.63c-1.59,0.14-2.59-0.82-2.64-2.48
		c-0.05-1.56,0.82-2.4,2.34-2.43C123.42,163.59,124.22,164.51,124.54,165.92z"/>
	<path class="st16" d="M199.12,172.11c-0.56-1.14-1.06-2.24-0.22-3.37c0.2-0.27,0.84-0.32,0.97,0.16
		C200.18,170.03,200.39,171.22,199.12,172.11z"/>
</g>
<g>
	<g>
		<path d="M106.75,248.74c1.7,0,3.07,0.31,4.06,1.03c0.94,0.7,1.58,1.82,1.58,3.41c0,3.5-3,4.92-5.28,4.92
			c-0.26,0-0.5-0.02-0.65-0.05l-1.66-0.43v3.74c0,2.02,0.17,2.06,2.38,2.3v0.67h-6.62v-0.67c2.06-0.22,2.16-0.36,2.16-2.35v-9.53
			c0-2.14-0.26-2.18-2.16-2.38v-0.67H106.75z M104.8,256.78c0.29,0.14,0.94,0.31,1.75,0.31c1.61,0,3.6-0.82,3.6-3.84
			c0-2.64-1.73-3.7-3.74-3.7c-0.7,0-1.2,0.12-1.34,0.29c-0.19,0.17-0.26,0.46-0.26,1.1V256.78z"/>
		<path d="M114.07,264.34v-0.67c1.51-0.14,1.68-0.26,1.68-1.9v-4.94c0-1.49-0.07-1.58-1.51-1.82v-0.58
			c1.25-0.22,2.38-0.53,3.41-0.96c0,1.01,0,2.02,0,3.02v5.28c0,1.63,0.17,1.75,1.73,1.9v0.67H114.07z M116.56,251.12
			c-0.67,0-1.27-0.6-1.27-1.27c0-0.77,0.6-1.32,1.3-1.32c0.67,0,1.22,0.55,1.22,1.32C117.81,250.52,117.26,251.12,116.56,251.12z"/>
		<path d="M123.98,260.84c-0.58,0.46-0.79,0.91-0.79,1.2c0,0.43,0.41,0.91,1.49,0.91c0.89,0,1.9-0.02,2.69-0.02
			c1.54,0,3.5,0.5,3.5,2.88c0,2.5-2.95,4.85-6.14,4.85c-2.71,0-4.18-1.58-4.22-3c0-0.53,0.22-0.98,0.6-1.37
			c0.48-0.5,1.42-1.3,1.97-1.73c-0.86-0.24-1.49-0.79-1.8-1.3c-0.22-0.36-0.29-0.79-0.29-1.03c0.91-0.34,1.73-1.01,2.21-1.66
			L123.98,260.84z M125.13,261.08c-2.23,0-4.08-1.37-4.08-3.62c0-2.74,2.45-4.01,4.32-4.01c0.79,0,1.58,0.22,2.3,0.6
			c1.1,0,2.54-0.19,3.22-0.36l0.14,0.22c-0.14,0.38-0.53,1.06-0.89,1.27c-0.36,0-1.15-0.1-1.49-0.12c0.41,0.55,0.7,1.32,0.7,2.18
			C129.36,259.86,127.2,261.08,125.13,261.08z M125.68,264.63c-1.18,0-1.7,0.14-2.14,0.5c-0.67,0.55-1.15,1.27-1.15,1.97
			c0,1.32,1.37,2.3,3.22,2.3c2.28,0,3.58-1.18,3.58-2.71c0-0.82-0.38-1.46-1.06-1.75C127.53,264.68,126.69,264.63,125.68,264.63z
			 M125.13,254.21c-1.08,0-2.04,0.98-2.04,2.88c0,1.9,0.96,3.22,2.28,3.22c1.06-0.05,1.99-0.94,1.99-2.88
			C127.36,255.56,126.48,254.21,125.13,254.21z"/>
		<path d="M135.24,260.84c-0.58,0.46-0.79,0.91-0.79,1.2c0,0.43,0.41,0.91,1.49,0.91c0.89,0,1.9-0.02,2.69-0.02
			c1.54,0,3.5,0.5,3.5,2.88c0,2.5-2.95,4.85-6.14,4.85c-2.71,0-4.18-1.58-4.22-3c0-0.53,0.22-0.98,0.6-1.37
			c0.48-0.5,1.42-1.3,1.97-1.73c-0.86-0.24-1.49-0.79-1.8-1.3c-0.22-0.36-0.29-0.79-0.29-1.03c0.91-0.34,1.73-1.01,2.21-1.66
			L135.24,260.84z M136.39,261.08c-2.23,0-4.08-1.37-4.08-3.62c0-2.74,2.45-4.01,4.32-4.01c0.79,0,1.58,0.22,2.3,0.6
			c1.1,0,2.54-0.19,3.22-0.36l0.14,0.22c-0.14,0.38-0.53,1.06-0.89,1.27c-0.36,0-1.15-0.1-1.49-0.12c0.41,0.55,0.7,1.32,0.7,2.18
			C140.61,259.86,138.45,261.08,136.39,261.08z M136.94,264.63c-1.18,0-1.7,0.14-2.14,0.5c-0.67,0.55-1.15,1.27-1.15,1.97
			c0,1.32,1.37,2.3,3.22,2.3c2.28,0,3.58-1.18,3.58-2.71c0-0.82-0.38-1.46-1.06-1.75C138.79,264.68,137.95,264.63,136.94,264.63z
			 M136.39,254.21c-1.08,0-2.04,0.98-2.04,2.88c0,1.9,0.96,3.22,2.28,3.22c1.06-0.05,1.99-0.94,1.99-2.88
			C138.62,255.56,137.73,254.21,136.39,254.21z"/>
		<path d="M153.62,254.46c-1.25,0.19-1.51,0.38-2.11,1.75c-0.6,1.34-1.25,2.98-2.9,7.15c-1.56,3.84-1.99,5.33-2.38,6.58
			c-0.14,0.5-0.41,0.62-0.72,0.62c-0.77,0-1.46-0.55-1.46-1.15c0-0.31,0.17-0.53,0.53-0.84c0.77-0.6,1.32-1.18,1.61-1.78
			c0.5-1.01,0.86-1.85,0.98-2.16c0.1-0.36,0.1-0.58-0.05-0.98c-0.94-2.74-2.23-5.69-2.95-7.42c-0.53-1.32-0.74-1.61-2.06-1.78v-0.65
			h4.85v0.65c-1.1,0.17-1.22,0.41-0.91,1.3l2.33,5.9c0.67-1.66,1.63-4.32,2.14-5.83c0.29-0.91,0.12-1.18-1.27-1.37v-0.65h4.39
			V254.46z"/>
		<path d="M162.38,255.9c2.3,0.38,4.18,1.49,4.18,3.82c0,1.63-0.91,2.93-2.33,3.7c-1.25,0.7-2.47,0.94-4.15,0.94h-5.9v-0.67
			c2.04-0.19,2.16-0.41,2.16-2.3v-9.63c0-1.99-0.22-2.16-2.16-2.33v-0.67h6.29c1.8,0,2.93,0.31,3.7,0.84
			c0.84,0.58,1.42,1.46,1.42,2.69C165.57,254.53,163.72,255.56,162.38,255.9z M159.62,255.61c2.64,0,3.72-1.06,3.72-3.02
			c0-1.68-1.03-2.98-3.34-2.98c-0.67,0-1.1,0.07-1.34,0.24c-0.19,0.14-0.26,0.41-0.26,1.18v4.58H159.62z M158.4,261.32
			c0,1.73,0.41,2.16,2.11,2.16c1.87,0,3.7-1.01,3.7-3.53c0-2.45-1.73-3.5-4.66-3.5h-1.15V261.32z"/>
		<path d="M175.94,264.63c-0.36,0-0.89-0.19-1.13-0.46c-0.31-0.31-0.46-0.65-0.58-1.08c-0.96,0.65-2.14,1.54-2.88,1.54
			c-1.7,0-2.93-1.42-2.93-2.95c0-1.18,0.65-1.94,1.97-2.4c1.46-0.5,3.26-1.13,3.79-1.56v-0.48c0-1.7-0.86-2.69-2.11-2.69
			c-0.55,0-0.89,0.26-1.13,0.55c-0.26,0.34-0.43,0.86-0.65,1.56c-0.12,0.38-0.34,0.55-0.7,0.55c-0.46,0-1.06-0.48-1.06-1.06
			c0-0.34,0.31-0.62,0.79-0.96c0.7-0.5,2.09-1.39,3.46-1.68c0.72,0,1.46,0.22,2.02,0.65c0.84,0.72,1.22,1.54,1.22,2.78v4.63
			c0,1.1,0.41,1.44,0.84,1.44c0.29,0,0.6-0.12,0.86-0.26l0.24,0.67L175.94,264.63z M174.19,258.56c-0.53,0.26-1.68,0.77-2.23,1.01
			c-0.91,0.41-1.46,0.86-1.46,1.75c0,1.27,0.96,1.85,1.73,1.85c0.62,0,1.49-0.38,1.97-0.86
			C174.19,261.18,174.19,259.69,174.19,258.56z"/>
		<path d="M185.88,264.34v-0.67c1.39-0.14,1.54-0.31,1.54-1.94v-3.96c0-1.68-0.6-2.81-2.18-2.81c-0.98,0-1.92,0.58-2.66,1.25v5.62
			c0,1.66,0.14,1.7,1.56,1.85v0.67h-5.18v-0.67c1.58-0.17,1.73-0.26,1.73-1.85v-4.94c0-1.56-0.17-1.63-1.46-1.85v-0.62
			c1.18-0.19,2.35-0.5,3.36-0.96c0,0.55,0,1.32,0,1.9c0.48-0.34,1.01-0.7,1.63-1.1c0.67-0.43,1.3-0.72,1.99-0.72
			c1.92,0,3.12,1.42,3.12,3.74v4.56c0,1.63,0.14,1.7,1.54,1.85v0.67H185.88z"/>
		<path d="M203.92,264.34c-1.3,0-2.71,0.02-3.22,0.05c-0.14-0.17-3.91-4.63-4.06-4.78c-0.34-0.38-0.48-0.5-0.7-0.5
			c-0.1,0-0.29,0-0.43,0.05v2.66c0,1.61,0.12,1.7,1.68,1.85v0.67h-5.3v-0.67c1.61-0.14,1.73-0.31,1.73-1.85v-11.47
			c0-1.56-0.17-1.61-1.66-1.82v-0.62c1.25-0.12,2.69-0.48,3.55-0.82c0,1.03,0,2.02,0,3.05v8.4c0.72-0.17,1.18-0.46,1.54-0.84
			c0.55-0.55,1.44-1.63,1.85-2.23c0.5-0.7,0.31-0.89-0.84-0.98v-0.67l4.94-0.22v0.65c-1.68,0.26-2.16,0.46-3.19,1.54
			c-0.46,0.48-1.54,1.7-2.04,2.33c0.48,0.67,2.93,3.46,3.72,4.3c1.15,1.15,1.49,1.22,2.42,1.27V264.34z"/>
	</g>
</g>
</svg>
